<?xml version="1.0" standalone="no"?>
<!DOCTYPE svg PUBLIC "-//W3C//DTD SVG 20010904//EN"
 "http://www.w3.org/TR/2001/REC-SVG-20010904/DTD/svg10.dtd">
<svg version="1.0" xmlns="http://www.w3.org/2000/svg"
 width="500.000000pt" height="500.000000pt" viewBox="0 0 500.000000 500.000000"
 preserveAspectRatio="xMidYMid meet">

<g transform="translate(0.000000,500.000000) scale(0.100000,-0.100000)"
fill="#ffffff" stroke="none">
<path d="M4340 4381 c-30 -10 -131 -50 -225 -90 -2110 -902 -3659 -1570 -3692
-1592 -76 -53 -123 -129 -123 -201 0 -84 63 -185 144 -233 24 -14 252 -97 507
-184 l464 -159 171 -568 c95 -312 183 -590 196 -618 27 -60 70 -111 109 -132
43 -22 129 -18 177 9 22 12 160 133 306 270 146 136 269 247 274 247 4 0 206
-155 449 -344 448 -349 472 -366 574 -381 53 -8 147 9 199 35 41 21 120 103
144 147 13 26 644 3282 676 3491 18 113 -5 195 -72 259 -64 62 -171 79 -278
44z m153 -216 c6 -23 -70 -438 -323 -1754 -182 -948 -335 -1732 -340 -1741
-20 -37 -71 -70 -109 -70 -54 0 -88 21 -286 176 -509 397 -834 649 -953 738
-73 54 -131 102 -130 106 2 5 368 437 813 960 446 524 815 962 822 974 37 64
-15 146 -92 146 -16 0 -452 -285 -1218 -795 l-1193 -795 -214 73 c-118 41
-318 109 -445 152 -295 101 -361 143 -300 191 24 19 709 315 3085 1332 404
173 753 320 775 328 64 21 98 15 108 -21z m-1160 -1077 c-98 -108 -1216 -1434
-1223 -1451 -5 -12 -44 -177 -85 -367 -80 -363 -83 -375 -90 -369 -6 6 -315
1032 -315 1046 0 10 1714 1163 1729 1163 3 0 -5 -10 -16 -22z m-957 -1745 c57
-43 103 -81 101 -86 -3 -9 -311 -296 -314 -293 -1 1 18 89 41 196 24 107 47
210 51 228 3 17 9 32 12 32 3 0 52 -35 109 -77z"/>
</g>
</svg>
