<?xml version="1.0" standalone="no"?>
<!DOCTYPE svg PUBLIC "-//W3C//DTD SVG 20010904//EN"
 "http://www.w3.org/TR/2001/REC-SVG-20010904/DTD/svg10.dtd">
<svg version="1.0" xmlns="http://www.w3.org/2000/svg"
 width="500.000000pt" height="500.000000pt" viewBox="0 0 500.000000 500.000000"
 preserveAspectRatio="xMidYMid meet">

<g transform="translate(0.000000,500.000000) scale(0.100000,-0.100000)"
fill="#ffffff" stroke="none">
<path d="M445 4286 c-163 -41 -299 -180 -334 -344 -16 -75 -16 -2809 0 -2884
36 -168 179 -311 347 -347 75 -16 4008 -16 4084 0 168 36 311 178 347 347 16
75 16 2809 0 2884 -36 169 -179 311 -347 347 -80 17 -4028 14 -4097 -3z m3720
-202 c-85 -65 -1655 -1154 -1664 -1154 -10 0 -1648 1136 -1675 1161 -6 5 686
9 1675 9 1514 -1 1682 -2 1664 -16z m-2652 -717 l987 -688 47 32 c43 30 1022
712 1717 1197 237 165 261 180 285 170 73 -27 136 -109 147 -191 6 -38 2 -53
-20 -91 -14 -25 -45 -60 -69 -79 -77 -62 -2096 -1487 -2107 -1487 -10 0 -2029
1424 -2107 1487 -24 19 -55 54 -69 79 -22 38 -26 53 -20 91 11 81 74 164 146
191 19 8 32 6 51 -7 14 -9 470 -326 1012 -704z m-1035 43 l121 -85 1 -1214 0
-1214 -65 5 c-105 9 -187 70 -221 165 -11 31 -13 264 -14 1251 l0 1214 28 -19
c16 -10 83 -56 150 -103z m4212 -2330 c-26 -97 -117 -169 -225 -178 l-65 -5 0
1214 1 1214 147 102 147 103 3 -1206 c1 -782 -1 -1220 -8 -1244z m-3000 1470
c443 -313 810 -568 815 -566 9 3 1510 1063 1648 1163 l47 35 0 -1141 0 -1141
-1700 0 -1700 0 0 1141 0 1140 43 -30 c23 -17 404 -287 847 -601z"/>
</g>
</svg>
