<?xml version="1.0" standalone="no"?>
<!DOCTYPE svg PUBLIC "-//W3C//DTD SVG 20010904//EN"
 "http://www.w3.org/TR/2001/REC-SVG-20010904/DTD/svg10.dtd">
<svg version="1.0" xmlns="http://www.w3.org/2000/svg"
 width="512.000000pt" height="512.000000pt" viewBox="0 0 512.000000 512.000000"
 preserveAspectRatio="xMidYMid meet">

<g transform="translate(0.000000,512.000000) scale(0.100000,-0.100000)"
fill="#ffffff" stroke="none">
<path d="M2528 4433 c-15 -2 -223 -138 -464 -302 l-437 -299 -169 115 c-189
129 -224 141 -290 107 -72 -38 -783 -530 -835 -577 -101 -93 -181 -227 -219
-368 -24 -89 -24 -281 0 -368 23 -85 67 -182 111 -242 19 -27 35 -51 35 -54 0
-3 -19 -5 -42 -5 -135 0 -231 -96 -215 -213 5 -35 192 -461 265 -604 100 -195
364 -353 590 -353 l50 0 4 -142 c6 -176 23 -230 103 -316 63 -68 135 -107 226
-121 88 -15 2550 -15 2638 0 91 14 163 53 226 121 80 86 97 140 103 316 l4
142 50 0 c85 0 199 29 296 76 74 36 108 60 170 122 43 42 91 98 106 124 15 26
83 170 152 320 142 310 151 344 112 418 -36 67 -91 101 -172 107 -36 3 -66 7
-66 9 0 2 16 26 35 53 110 152 156 367 121 555 -18 95 -29 123 -55 143 -38 29
-103 5 -115 -41 -3 -14 1 -51 9 -83 9 -33 16 -100 16 -154 0 -166 -61 -309
-181 -427 l-53 -52 -463 0 c-255 0 -464 3 -464 7 0 4 11 18 24 32 47 49 123
189 154 282 105 319 32 655 -195 908 l-63 70 126 86 c76 52 132 84 141 81 35
-14 316 -212 326 -231 20 -35 15 -251 -7 -315 -25 -74 -66 -154 -110 -215 -42
-59 -45 -87 -11 -120 56 -57 113 -23 193 118 61 106 93 214 101 330 l6 98 133
-93 c204 -142 188 -134 228 -115 36 18 50 50 40 91 -8 32 -52 65 -486 362
l-365 249 -55 0 c-54 0 -59 -3 -227 -117 l-171 -117 -219 148 c-120 81 -316
216 -437 299 -120 84 -226 152 -236 152 -10 0 -24 2 -32 3 -7 2 -25 2 -40 0z
m242 -293 l205 -141 13 -52 c20 -79 19 -268 -2 -352 -26 -101 -95 -239 -165
-325 -67 -83 -76 -118 -39 -157 48 -52 107 -19 197 111 115 167 168 323 179
524 l7 123 165 -112 c219 -149 299 -229 368 -371 60 -122 82 -214 82 -340 0
-214 -91 -419 -251 -562 l-51 -46 -918 0 -918 0 -57 52 c-239 218 -313 575
-179 866 42 93 109 186 173 244 27 24 123 95 213 157 l163 112 6 -108 c11
-176 50 -307 138 -457 25 -43 70 -105 99 -137 46 -50 59 -59 88 -59 80 0 97
74 36 149 -162 195 -230 405 -202 625 6 49 14 95 18 103 7 12 411 292 422 293
3 0 98 -63 210 -140z m-1403 -316 l125 -87 -40 -41 c-150 -157 -237 -340 -262
-548 -15 -125 0 -258 42 -387 31 -93 107 -233 154 -282 13 -14 24 -28 24 -32
0 -4 -208 -7 -463 -7 l-463 0 -54 53 c-119 116 -169 231 -177 402 -12 252 77
404 340 586 l132 90 6 -98 c8 -116 40 -224 101 -330 80 -141 137 -175 193
-118 34 33 31 61 -11 120 -94 130 -141 280 -131 424 3 47 9 94 13 104 6 17
318 237 336 237 5 0 66 -39 135 -86z m3593 -1559 c9 -11 -10 -63 -105 -272
-64 -142 -128 -278 -143 -303 -61 -105 -180 -201 -301 -243 l-66 -22 -1337 -3
-1337 -2 -20 -27 c-26 -32 -27 -64 -2 -94 l19 -24 1194 -5 1193 -5 3 -80 c7
-177 -31 -270 -130 -319 l-52 -26 -1317 0 -1317 0 -53 28 c-42 21 -61 40 -86
82 -33 54 -33 55 -33 187 l0 133 152 0 c142 0 153 1 175 22 26 25 31 74 9 104
-14 18 -32 19 -323 25 -286 5 -313 7 -373 28 -118 41 -217 114 -281 208 -16
23 -85 166 -154 318 -101 221 -124 280 -114 291 18 22 4781 21 4799 -1z"/>
</g>
</svg>
