<?xml version="1.0" standalone="no"?>
<!DOCTYPE svg PUBLIC "-//W3C//DTD SVG 20010904//EN"
 "http://www.w3.org/TR/2001/REC-SVG-20010904/DTD/svg10.dtd">
<svg version="1.0" xmlns="http://www.w3.org/2000/svg"
 width="920.000000pt" height="512.000000pt" viewBox="0 0 920.000000 512.000000"
 preserveAspectRatio="xMidYMid meet">

<g transform="translate(0.000000,512.000000) scale(0.100000,-0.100000)"
fill="#ffffff" stroke="none">
<path d="M3429 5106 c-99 -27 -191 -104 -231 -194 -29 -67 -35 -198 -14 -282
25 -98 64 -195 87 -216 30 -27 78 -22 106 10 12 15 23 33 23 39 0 7 -16 57
-35 112 -60 171 -44 292 44 351 135 89 291 -2 473 -276 78 -117 232 -421 307
-608 l50 -122 -38 -19 c-55 -28 -139 -96 -191 -152 l-46 -50 -55 63 c-90 103
-220 266 -297 374 -85 120 -91 125 -133 126 -45 1 -83 -43 -75 -85 10 -48 204
-310 380 -512 34 -38 67 -78 74 -87 11 -14 8 -31 -18 -107 -17 -50 -34 -113
-37 -140 -7 -60 -7 -61 -64 -93 -139 -81 -222 -258 -222 -478 0 -222 84 -409
249 -558 l67 -61 -42 -65 c-88 -134 -158 -337 -182 -527 l-12 -91 -112 112
c-109 108 -115 113 -162 117 -60 6 -105 -14 -134 -60 -18 -28 -20 -43 -15
-132 11 -217 83 -480 190 -700 225 -459 614 -736 1108 -786 265 -27 517 23
762 149 134 70 166 97 166 145 0 39 -36 77 -73 77 -10 0 -59 -23 -106 -50
-204 -118 -395 -169 -627 -170 -469 -1 -886 274 -1099 722 -76 161 -138 381
-160 568 l-7 55 89 -87 c102 -100 154 -130 234 -136 105 -8 145 14 294 158
188 182 192 182 381 -1 114 -111 139 -130 185 -143 67 -20 111 -20 178 0 46
13 71 32 185 143 189 183 193 183 381 1 149 -144 189 -166 294 -158 80 6 132
36 235 136 l88 87 -7 -60 c-12 -111 -46 -259 -86 -380 -60 -182 -112 -278
-265 -489 -27 -38 -34 -56 -29 -75 9 -39 38 -62 75 -63 28 -1 41 7 79 48 103
114 219 321 284 510 67 193 122 504 105 588 -15 73 -71 111 -151 103 -47 -4
-53 -9 -162 -117 l-112 -112 -12 90 c-23 185 -83 362 -169 505 l-54 90 66 59
c165 149 249 337 249 558 0 222 -88 407 -228 481 -26 14 -47 33 -50 44 -19
102 -31 149 -51 204 -13 35 -24 67 -24 70 0 4 50 66 111 137 561 654 725 1113
476 1330 -118 102 -257 118 -405 47 -77 -38 -231 -191 -309 -308 -117 -177
-236 -410 -343 -678 l-44 -109 -31 7 c-118 24 -252 24 -370 0 l-30 -7 -54 134
c-295 728 -608 1074 -902 994z m2360 -179 c198 -131 39 -525 -446 -1104 -52
-62 -98 -115 -103 -118 -5 -3 -19 9 -32 26 -29 39 -157 143 -208 169 l-39 20
50 122 c159 387 308 646 456 796 123 123 227 152 322 89z m-1061 -1093 c42 -8
115 -34 162 -56 110 -53 227 -166 283 -275 41 -78 77 -203 77 -265 0 -59 24
-106 57 -114 68 -15 94 -27 122 -60 67 -76 96 -169 96 -309 -1 -315 -220 -544
-600 -626 -119 -26 -387 -36 -521 -20 -303 37 -511 144 -629 321 -120 181
-137 421 -40 586 26 44 78 94 98 94 7 0 29 5 49 11 46 12 68 49 68 112 0 67
35 190 77 270 48 92 173 220 258 264 152 78 287 99 443 67z m-613 -1817 c174
-59 261 -71 490 -71 221 0 308 13 495 74 144 47 134 49 193 -56 70 -124 124
-289 142 -434 l7 -55 -109 107 c-126 125 -172 150 -270 150 -101 -1 -155 -33
-295 -174 -109 -110 -119 -118 -155 -118 -51 0 -80 20 -200 138 -125 123 -182
154 -279 154 -99 -1 -157 -33 -278 -156 l-98 -100 7 54 c17 133 56 262 113
375 38 77 89 155 100 155 4 0 66 -20 137 -43z"/>
<path d="M4156 3048 c-43 -40 -36 -107 15 -133 52 -27 119 12 119 69 -1 73
-81 111 -134 64z"/>
<path d="M4955 3058 c-69 -39 -56 -129 22 -152 32 -10 81 19 90 52 11 41 5 65
-23 90 -27 24 -58 28 -89 10z"/>
<path d="M4543 2915 c-45 -19 -59 -49 -38 -81 21 -32 12 -92 -17 -130 -18 -22
-26 -25 -57 -19 -19 4 -48 13 -63 21 -40 21 -76 17 -103 -11 -31 -30 -33 -77
-4 -104 34 -31 133 -64 194 -63 40 0 68 7 100 25 l45 26 46 -26 c35 -19 60
-26 103 -26 62 1 155 31 189 63 30 28 29 74 -3 105 -27 28 -63 32 -103 11 -15
-8 -44 -17 -63 -21 -31 -6 -39 -3 -57 19 -29 38 -38 98 -17 130 21 32 7 62
-40 82 -42 17 -71 17 -112 -1z"/>
</g>
</svg>
