<?xml version="1.0" standalone="no"?>
<!DOCTYPE svg PUBLIC "-//W3C//DTD SVG 20010904//EN"
 "http://www.w3.org/TR/2001/REC-SVG-20010904/DTD/svg10.dtd">
<svg version="1.0" xmlns="http://www.w3.org/2000/svg"
 width="920.000000pt" height="700.000000pt" viewBox="0 0 920.000000 700.000000"
 preserveAspectRatio="xMidYMid meet">

<g transform="translate(0.000000,700.000000) scale(0.100000,-0.100000)"
fill="#ffffff" stroke="none">
<path d="M2988 5899 c-375 -40 -687 -322 -776 -702 -16 -66 -17 -204 -17
-1697 l0 -1625 22 -88 c83 -325 309 -564 622 -657 134 -40 207 -41 1831 -38
1414 4 1572 6 1633 20 339 83 588 329 679 669 l22 84 4 1560 c3 1590 1 1706
-34 1826 -88 301 -325 538 -624 623 -30 9 -95 20 -145 26 -108 12 -3101 11
-3217 -1z m3214 -440 c175 -36 321 -182 357 -357 16 -75 16 -3129 0 -3204 -36
-175 -182 -321 -357 -357 -75 -16 -3129 -16 -3204 0 -175 36 -321 182 -357
357 -16 75 -16 3129 0 3204 35 170 174 313 342 354 70 17 3138 20 3219 3z"/>
<path d="M4340 4319 c-124 -8 -176 -23 -217 -64 -18 -18 -33 -37 -33 -42 0 -5
20 -14 44 -21 65 -17 103 -54 123 -120 22 -74 25 -399 5 -479 -18 -70 -45
-103 -83 -103 -78 0 -267 271 -407 586 -39 86 -67 134 -86 148 -26 20 -42 21
-269 24 -375 4 -371 10 -209 -321 336 -689 611 -1040 937 -1199 157 -76 266
-100 460 -101 133 -1 165 1 191 15 36 20 54 61 54 124 0 106 41 213 91 239 51
27 91 6 189 -99 164 -174 217 -224 271 -252 l54 -29 270 0 c247 0 273 2 305
19 19 11 40 26 47 35 50 65 -44 209 -296 454 -149 145 -181 185 -181 227 0 40
47 114 182 291 215 281 312 449 306 526 -3 32 -9 41 -38 56 -32 17 -58 18
-328 14 -334 -5 -315 0 -353 -95 -76 -193 -241 -476 -342 -588 -79 -87 -126
-92 -163 -17 -18 35 -19 61 -16 344 4 331 0 361 -50 392 -52 34 -253 50 -458
36z"/>
</g>
</svg>
